<mxfile compressed="false" modified="2020-01-15T00:00:00.334Z" host="Electron" agent="Mozilla/5.0 (Macintosh; Intel Mac OS X 10_14_5) AppleWebKit/537.36 (KHTML, like Gecko) draw.io/12.4.2 Chrome/78.0.3904.130 Electron/7.1.4 Safari/537.36" etag="sbsj6VCSA3Usgvb_od8_" version="12.4.2" type="device" pages="10">
  <diagram id="RmvXUERyM2Qi-wkrYMiy" name="Related modules">
    <mxGraphModel dx="363" dy="-359" grid="1" gridSize="10" guides="1" tooltips="1" connect="1" arrows="1" fold="1" page="1" pageScale="1" pageWidth="850" pageHeight="1100" math="0" shadow="0">
      <root>
        <mxCell id="_OqWPcHLJAwWi8ONWp6I-17" value="ðŸ‘‰">
          <mxGeometry x="900" y="2052" width="430" height="70" as="geometry"/>
        </mxCell>
      </root>
    </mxGraphModel>
  </diagram>
</mxfile>
